<svg xmlns="http://www.w3.org/2000/svg" viewBox="0 0 118.19 46"><defs><style>.cls-1{fill:#fff;}</style></defs><title>f3logo</title><g id="Layer_2" data-name="Layer 2"><g id="Silver_Mobile_Phone" data-name="Silver Mobile Phone"><path class="cls-1" d="M76.36,0l-12,11.12H34.81l-2.66,7.44H62L58.8,27.43H28.93L22.16,46H0L16.66,0Z"/><path class="cls-1" d="M118.19,2.27a2.31,2.31,0,0,1-.13.67l-2.73,7.56A4.48,4.48,0,0,1,112.24,13c1,.41,1.52.93,1.52,1.55,0,.2-1,3-3,8.51a4.1,4.1,0,0,1-2.26,2.16,7.12,7.12,0,0,1-3.16.78h-29l2.31-6.29H99.4l1.53-4.21H86.61l1.83-5h14.31l1.5-4.21H83.44L85.75,0H114.8A4.49,4.49,0,0,1,117,.53,1.92,1.92,0,0,1,118.19,2.27Z"/></g></g></svg>