<svg xmlns="http://www.w3.org/2000/svg" viewBox="0 0 254 38"><defs><style>.cls-1{fill:#2d4485;}.cls-2,.cls-3{fill:#fff;}.cls-3{font-size:17.47px;font-family:Roboto-Regular, Roboto;}.cls-4,.cls-5{font-family:Roboto-Bold, Roboto;font-weight:700;}.cls-4{letter-spacing:-0.02em;}</style></defs><title>facebookshare</title><g id="Layer_2" data-name="Layer 2"><g id="Silver_Mobile_Phone" data-name="Silver Mobile Phone"><rect class="cls-1" width="254" height="38" rx="12" ry="12"/><g id="uJ4uiO"><path class="cls-2" d="M18.48,20.72v-5H23c0-.27,0-.46,0-.64,0-1.48,0-3,.1-4.44a5.75,5.75,0,0,1,4.47-5.31A11.36,11.36,0,0,1,29.16,5a8.22,8.22,0,0,1,1.11,0c1.09,0,2.17.12,3.25.18V9.85c-1.18,0-2.38-.07-3.56,0a1.65,1.65,0,0,0-1.67,1.63c-.1,1.36,0,2.74,0,4.19h5l-.65,5c-1.31,0-2.58,0-3.84,0-.45,0-.61.09-.61.58,0,4,0,8,0,11.92,0,.27,0,.53,0,.79h-5.3a1.81,1.81,0,0,0,0-.23V21.11c0-.11,0-.21,0-.39Z"/></g><text class="cls-3" transform="translate(50.69 26)">Share with <tspan class="cls-4" x="86" y="0">F</tspan><tspan class="cls-5" x="95.28" y="0">acebook</tspan></text></g></g></svg>