<svg xmlns="http://www.w3.org/2000/svg" viewBox="0 0 254 38"><defs><style>.cls-1{fill:#2d4485;}.cls-2{fill:#fff;}</style></defs><title>facebookshare</title><g id="Layer_2" data-name="Layer 2"><g id="Silver_Mobile_Phone" data-name="Silver Mobile Phone"><rect class="cls-1" width="254" height="38" rx="12" ry="12"/><g id="uJ4uiO"><path class="cls-2" d="M18.48,20.72v-5H23c0-.27,0-.46,0-.64,0-1.48,0-3,.1-4.44a5.75,5.75,0,0,1,4.47-5.31A11.36,11.36,0,0,1,29.16,5a8.22,8.22,0,0,1,1.11,0c1.09,0,2.17.12,3.25.18V9.85c-1.18,0-2.38-.07-3.56,0a1.65,1.65,0,0,0-1.67,1.63c-.1,1.36,0,2.74,0,4.19h5l-.65,5c-1.31,0-2.58,0-3.84,0-.45,0-.61.09-.61.58,0,4,0,8,0,11.92,0,.27,0,.53,0,.79h-5.3a1.81,1.81,0,0,0,0-.23V21.11c0-.11,0-.21,0-.39Z"/></g><path class="cls-2" d="M55.79,20.46A7.62,7.62,0,0,1,52.72,19a2.84,2.84,0,0,1-1-2.18,3,3,0,0,1,1.17-2.42,4.66,4.66,0,0,1,3-1,5,5,0,0,1,2.28.49,3.79,3.79,0,0,1,1.56,1.37,3.54,3.54,0,0,1,.55,1.9H58.72A2.28,2.28,0,0,0,58,15.39a2.9,2.9,0,0,0-2-.64,3,3,0,0,0-1.89.53,1.78,1.78,0,0,0-.67,1.48,1.6,1.6,0,0,0,.64,1.29,6.33,6.33,0,0,0,2.19,1,10.1,10.1,0,0,1,2.42,1A3.6,3.6,0,0,1,60,21.2a3.1,3.1,0,0,1,.42,1.64,2.91,2.91,0,0,1-1.17,2.42,5,5,0,0,1-3.15.91,5.94,5.94,0,0,1-2.39-.49A4,4,0,0,1,52,24.33a3.25,3.25,0,0,1-.6-1.93H53a2.14,2.14,0,0,0,.84,1.78,3.51,3.51,0,0,0,2.22.65,3.25,3.25,0,0,0,2-.53,1.86,1.86,0,0,0,0-2.85A7.36,7.36,0,0,0,55.79,20.46Z"/><path class="cls-2" d="M63.82,17.89a3.35,3.35,0,0,1,2.73-1.29c2,0,2.94,1.1,3,3.3V26H67.93V19.89a2.16,2.16,0,0,0-.46-1.48,1.86,1.86,0,0,0-1.4-.47,2.2,2.2,0,0,0-1.34.41,2.79,2.79,0,0,0-.91,1.07V26H62.24V12.9h1.58Z"/><path class="cls-2" d="M77.56,26a3.49,3.49,0,0,1-.22-1,3.52,3.52,0,0,1-2.63,1.14,3.25,3.25,0,0,1-2.23-.77,2.49,2.49,0,0,1-.88-2,2.61,2.61,0,0,1,1.1-2.24,5.18,5.18,0,0,1,3.08-.8h1.54v-.72a1.79,1.79,0,0,0-.5-1.32,2,2,0,0,0-1.46-.49A2.25,2.25,0,0,0,74,18.3a1.24,1.24,0,0,0-.57,1H71.79A2.18,2.18,0,0,1,72.28,18a3.36,3.36,0,0,1,1.33-1,4.5,4.5,0,0,1,1.85-.37,3.63,3.63,0,0,1,2.5.8,2.86,2.86,0,0,1,.93,2.19v4.25a5.09,5.09,0,0,0,.33,2V26ZM75,24.8a2.72,2.72,0,0,0,1.4-.39,2.28,2.28,0,0,0,1-1V21.52H76.08c-1.93,0-2.9.57-2.9,1.7a1.44,1.44,0,0,0,.49,1.16A1.92,1.92,0,0,0,75,24.8Z"/><path class="cls-2" d="M85.83,18.18a4.75,4.75,0,0,0-.78-.06A2.08,2.08,0,0,0,83,19.45V26H81.37V16.77H82.9l0,1.06a2.46,2.46,0,0,1,2.2-1.23,1.6,1.6,0,0,1,.7.12Z"/><path class="cls-2" d="M91.11,26.17a4,4,0,0,1-3-1.23,4.57,4.57,0,0,1-1.18-3.3v-.29a5.51,5.51,0,0,1,.52-2.45,4,4,0,0,1,1.47-1.69,3.66,3.66,0,0,1,2-.61,3.45,3.45,0,0,1,2.8,1.18,5.13,5.13,0,0,1,1,3.4v.66H88.46a3.29,3.29,0,0,0,.79,2.2,2.52,2.52,0,0,0,2,.84,2.73,2.73,0,0,0,1.41-.34,3.64,3.64,0,0,0,1-.9l1,.75A3.88,3.88,0,0,1,91.11,26.17Zm-.2-8.28a2.12,2.12,0,0,0-1.6.7,3.36,3.36,0,0,0-.8,1.95h4.62v-.12a3,3,0,0,0-.65-1.86A2,2,0,0,0,90.91,17.89Z"/><path class="cls-2" d="M109,23.82l1.78-7h1.57L109.7,26h-1.28l-2.24-7L104,26h-1.28L100,16.77h1.57l1.82,6.91,2.15-6.91h1.27Z"/><path class="cls-2" d="M114,14.32a1,1,0,0,1,.23-.65.91.91,0,0,1,.7-.26.86.86,0,0,1,.94.91.89.89,0,0,1-.24.64.93.93,0,0,1-.7.26.91.91,0,0,1-.7-.26A.93.93,0,0,1,114,14.32ZM115.7,26h-1.58V16.77h1.58Z"/><path class="cls-2" d="M120.37,14.53v2.24h1.72V18h-1.72v5.73a1.28,1.28,0,0,0,.23.83.94.94,0,0,0,.78.28,3.68,3.68,0,0,0,.76-.1V26a4.78,4.78,0,0,1-1.22.17,2,2,0,0,1-1.59-.64,2.75,2.75,0,0,1-.54-1.82V18h-1.68V16.77h1.68V14.53Z"/><path class="cls-2" d="M125.51,17.89a3.35,3.35,0,0,1,2.73-1.29c1.95,0,2.94,1.1,2.95,3.3V26h-1.57V19.89a2.16,2.16,0,0,0-.46-1.48,1.86,1.86,0,0,0-1.4-.47,2.2,2.2,0,0,0-1.34.41,2.79,2.79,0,0,0-.91,1.07V26h-1.58V12.9h1.58Z"/><path class="cls-2" d="M145.27,20.92h-4.91V26H137.8V13.58h8.08v2.07h-5.52v3.21h4.91Z"/><path class="cls-2" d="M152.26,26a2.82,2.82,0,0,1-.24-.83,3,3,0,0,1-2.33,1,3.24,3.24,0,0,1-2.25-.79,2.53,2.53,0,0,1-.89-2,2.61,2.61,0,0,1,1.09-2.25,5.4,5.4,0,0,1,3.14-.79h1.13v-.53a1.54,1.54,0,0,0-.32-1,1.29,1.29,0,0,0-1-.39,1.47,1.47,0,0,0-1,.3,1,1,0,0,0-.35.82h-2.47a2.47,2.47,0,0,1,.5-1.48,3.13,3.13,0,0,1,1.4-1.07,5.07,5.07,0,0,1,2-.39,4,4,0,0,1,2.71.86,3,3,0,0,1,1,2.4v4a4.45,4.45,0,0,0,.36,2V26Zm-2-1.72a2.14,2.14,0,0,0,1-.24,1.53,1.53,0,0,0,.68-.65V21.8H151c-1.23,0-1.89.43-2,1.28v.15a1,1,0,0,0,.33.75A1.24,1.24,0,0,0,150.23,24.28Z"/><path class="cls-2" d="M160.12,24.18a1.6,1.6,0,0,0,1.11-.37,1.33,1.33,0,0,0,.44-1H164a3.09,3.09,0,0,1-.51,1.72,3.32,3.32,0,0,1-1.38,1.21,4.38,4.38,0,0,1-1.93.43A4,4,0,0,1,157,24.91a5,5,0,0,1-1.14-3.48v-.16a5,5,0,0,1,1.13-3.4,4,4,0,0,1,3.12-1.27,3.89,3.89,0,0,1,2.77,1A3.48,3.48,0,0,1,164,20.21h-2.31a1.7,1.7,0,0,0-.44-1.17,1.66,1.66,0,0,0-2.43.17,3.68,3.68,0,0,0-.44,2v.26a3.69,3.69,0,0,0,.44,2A1.51,1.51,0,0,0,160.12,24.18Z"/><path class="cls-2" d="M169.64,26.17a4.55,4.55,0,0,1-3.31-1.25,4.42,4.42,0,0,1-1.27-3.32v-.23a5.56,5.56,0,0,1,.54-2.49,4,4,0,0,1,1.52-1.69,4.34,4.34,0,0,1,2.25-.59,3.86,3.86,0,0,1,3,1.19,4.9,4.9,0,0,1,1.09,3.39v1h-5.88a2.32,2.32,0,0,0,.72,1.45,2.19,2.19,0,0,0,1.52.54,2.67,2.67,0,0,0,2.23-1l1.21,1.36a3.7,3.7,0,0,1-1.5,1.22A5,5,0,0,1,169.64,26.17Zm-.28-7.58a1.53,1.53,0,0,0-1.19.49,2.58,2.58,0,0,0-.59,1.42H171v-.19a1.82,1.82,0,0,0-.44-1.27A1.58,1.58,0,0,0,169.36,18.59Z"/><path class="cls-2" d="M183.15,21.47a5.6,5.6,0,0,1-.94,3.46,3.18,3.18,0,0,1-2.65,1.24,2.91,2.91,0,0,1-2.4-1.15l-.11,1h-2.22V12.9h2.47v4.7a2.8,2.8,0,0,1,2.24-1,3.15,3.15,0,0,1,2.65,1.24,5.59,5.59,0,0,1,1,3.49Zm-2.46-.18a3.63,3.63,0,0,0-.45-2,1.49,1.49,0,0,0-1.32-.65,1.63,1.63,0,0,0-1.62,1v3.64a1.65,1.65,0,0,0,1.64,1A1.52,1.52,0,0,0,180.51,23,6,6,0,0,0,180.69,21.29Z"/><path class="cls-2" d="M184.29,21.3a5.38,5.38,0,0,1,.53-2.45,3.82,3.82,0,0,1,1.52-1.66,4.36,4.36,0,0,1,2.31-.59,4.22,4.22,0,0,1,3,1.14A4.62,4.62,0,0,1,193,20.85l0,.63a4.81,4.81,0,0,1-1.19,3.4,4.58,4.58,0,0,1-6.36,0,4.87,4.87,0,0,1-1.19-3.48Zm2.46.17a3.43,3.43,0,0,0,.5,2,1.77,1.77,0,0,0,2.81,0,3.74,3.74,0,0,0,.5-2.2,3.4,3.4,0,0,0-.5-2,1.63,1.63,0,0,0-1.41-.7,1.6,1.6,0,0,0-1.4.7A3.84,3.84,0,0,0,186.75,21.47Z"/><path class="cls-2" d="M194.17,21.3a5.51,5.51,0,0,1,.52-2.45,3.85,3.85,0,0,1,1.53-1.66,4.35,4.35,0,0,1,2.3-.59,4.19,4.19,0,0,1,3,1.14,4.58,4.58,0,0,1,1.32,3.11l0,.63a4.81,4.81,0,0,1-1.19,3.4,4.11,4.11,0,0,1-3.18,1.29,4.17,4.17,0,0,1-3.19-1.28,4.91,4.91,0,0,1-1.18-3.48Zm2.46.17a3.43,3.43,0,0,0,.49,2,1.78,1.78,0,0,0,2.82,0,3.74,3.74,0,0,0,.5-2.2,3.4,3.4,0,0,0-.5-2,1.65,1.65,0,0,0-1.42-.7,1.61,1.61,0,0,0-1.4.7A3.84,3.84,0,0,0,196.63,21.47Z"/><path class="cls-2" d="M207.78,22.3l-.89.88V26h-2.46V12.9h2.46v7.25l.48-.61,2.36-2.77h3l-3.33,3.85L213,26h-2.83Z"/></g></g></svg>