<svg xmlns="http://www.w3.org/2000/svg" viewBox="0 0 254 38"><defs><style>.cls-1{fill:#00b2ef;}.cls-2{font-size:17.47px;font-family:Roboto-Regular, Roboto;}.cls-2,.cls-5{fill:#fff;}.cls-3,.cls-4{font-family:Roboto-Bold, Roboto;font-weight:700;}.cls-3{letter-spacing:-0.02em;}</style></defs><title>tweetshare</title><g id="Layer_2" data-name="Layer 2"><g id="Silver_Mobile_Phone" data-name="Silver Mobile Phone"><rect class="cls-1" width="254" height="38" rx="12" ry="12"/><text class="cls-2" transform="translate(50.69 26)">Share with <tspan class="cls-3" x="86" y="0">T</tspan><tspan class="cls-4" x="96.41" y="0">witter</tspan></text><path class="cls-5" d="M14.6,18c0,2.39,2.06,3.61,4.31,4.07a3.17,3.17,0,0,1-2.13.36c.63,1.95,2.4,2.63,4.55,2.66a9.76,9.76,0,0,1-6.16,1.74A9.18,9.18,0,0,1,14,26.76c2.18,1.39,4.76,2.77,7.54,2.77,9,0,13.43-6.72,13.43-13.22,0-.21,0-.42,0-.63A13.58,13.58,0,0,0,38.05,13c-.88.39-1.91,0-2.9.14A4,4,0,0,0,37.55,10a12.44,12.44,0,0,1-3.37,1.55,5.06,5.06,0,0,0-3.59-1.75c-2.71,0-4.51,2.53-4.51,5.24a3.51,3.51,0,0,0,.08,1c-4.09-.2-8.43-1.54-10.85-4.52A4.94,4.94,0,0,0,14.64,14a5.38,5.38,0,0,0,2.63,4.1C16.46,18.05,16.62,18.57,14.6,18Z"/></g></g></svg>