<svg xmlns="http://www.w3.org/2000/svg" viewBox="0 0 254 38"><defs><style>.cls-1{fill:#00b2ef;}.cls-2{fill:#fff;}</style></defs><title>tweetshare</title><g id="Layer_2" data-name="Layer 2"><g id="Silver_Mobile_Phone" data-name="Silver Mobile Phone"><rect class="cls-1" width="254" height="38" rx="12" ry="12"/><path class="cls-2" d="M55.79,20.46A7.62,7.62,0,0,1,52.72,19a2.84,2.84,0,0,1-1-2.18,3,3,0,0,1,1.17-2.42,4.66,4.66,0,0,1,3-1,5,5,0,0,1,2.28.49,3.79,3.79,0,0,1,1.56,1.37,3.54,3.54,0,0,1,.55,1.9H58.72A2.28,2.28,0,0,0,58,15.39a2.9,2.9,0,0,0-2-.64,3,3,0,0,0-1.89.53,1.78,1.78,0,0,0-.67,1.48,1.6,1.6,0,0,0,.64,1.29,6.33,6.33,0,0,0,2.19,1,10.1,10.1,0,0,1,2.42,1A3.6,3.6,0,0,1,60,21.2a3.1,3.1,0,0,1,.42,1.64,2.91,2.91,0,0,1-1.17,2.42,5,5,0,0,1-3.15.91,5.94,5.94,0,0,1-2.39-.49A4,4,0,0,1,52,24.33a3.25,3.25,0,0,1-.6-1.93H53a2.14,2.14,0,0,0,.84,1.78,3.51,3.51,0,0,0,2.22.65,3.25,3.25,0,0,0,2-.53,1.86,1.86,0,0,0,0-2.85A7.36,7.36,0,0,0,55.79,20.46Z"/><path class="cls-2" d="M63.82,17.89a3.35,3.35,0,0,1,2.73-1.29c2,0,2.94,1.1,3,3.3V26H67.93V19.89a2.16,2.16,0,0,0-.46-1.48,1.86,1.86,0,0,0-1.4-.47,2.2,2.2,0,0,0-1.34.41,2.79,2.79,0,0,0-.91,1.07V26H62.24V12.9h1.58Z"/><path class="cls-2" d="M77.56,26a3.49,3.49,0,0,1-.22-1,3.52,3.52,0,0,1-2.63,1.14,3.25,3.25,0,0,1-2.23-.77,2.49,2.49,0,0,1-.88-2,2.61,2.61,0,0,1,1.1-2.24,5.18,5.18,0,0,1,3.08-.8h1.54v-.72a1.79,1.79,0,0,0-.5-1.32,2,2,0,0,0-1.46-.49A2.25,2.25,0,0,0,74,18.3a1.24,1.24,0,0,0-.57,1H71.79A2.18,2.18,0,0,1,72.28,18a3.36,3.36,0,0,1,1.33-1,4.5,4.5,0,0,1,1.85-.37,3.63,3.63,0,0,1,2.5.8,2.86,2.86,0,0,1,.93,2.19v4.25a5.09,5.09,0,0,0,.33,2V26ZM75,24.8a2.72,2.72,0,0,0,1.4-.39,2.28,2.28,0,0,0,1-1V21.52H76.08c-1.93,0-2.9.57-2.9,1.7a1.44,1.44,0,0,0,.49,1.16A1.92,1.92,0,0,0,75,24.8Z"/><path class="cls-2" d="M85.83,18.18a4.75,4.75,0,0,0-.78-.06A2.08,2.08,0,0,0,83,19.45V26H81.37V16.77H82.9l0,1.06a2.46,2.46,0,0,1,2.2-1.23,1.6,1.6,0,0,1,.7.12Z"/><path class="cls-2" d="M91.11,26.17a4,4,0,0,1-3-1.23,4.57,4.57,0,0,1-1.18-3.3v-.29a5.51,5.51,0,0,1,.52-2.45,4,4,0,0,1,1.47-1.69,3.66,3.66,0,0,1,2-.61,3.45,3.45,0,0,1,2.8,1.18,5.13,5.13,0,0,1,1,3.4v.66H88.46a3.29,3.29,0,0,0,.79,2.2,2.52,2.52,0,0,0,2,.84,2.73,2.73,0,0,0,1.41-.34,3.64,3.64,0,0,0,1-.9l1,.75A3.88,3.88,0,0,1,91.11,26.17Zm-.2-8.28a2.12,2.12,0,0,0-1.6.7,3.36,3.36,0,0,0-.8,1.95h4.62v-.12a3,3,0,0,0-.65-1.86A2,2,0,0,0,90.91,17.89Z"/><path class="cls-2" d="M109,23.82l1.78-7h1.57L109.7,26h-1.28l-2.24-7L104,26h-1.28L100,16.77h1.57l1.82,6.91,2.15-6.91h1.27Z"/><path class="cls-2" d="M114,14.32a1,1,0,0,1,.23-.65.91.91,0,0,1,.7-.26.86.86,0,0,1,.94.91.89.89,0,0,1-.24.64.93.93,0,0,1-.7.26.91.91,0,0,1-.7-.26A.93.93,0,0,1,114,14.32ZM115.7,26h-1.58V16.77h1.58Z"/><path class="cls-2" d="M120.37,14.53v2.24h1.72V18h-1.72v5.73a1.28,1.28,0,0,0,.23.83.94.94,0,0,0,.78.28,3.68,3.68,0,0,0,.76-.1V26a4.78,4.78,0,0,1-1.22.17,2,2,0,0,1-1.59-.64,2.75,2.75,0,0,1-.54-1.82V18h-1.68V16.77h1.68V14.53Z"/><path class="cls-2" d="M125.51,17.89a3.35,3.35,0,0,1,2.73-1.29c1.95,0,2.94,1.1,2.95,3.3V26h-1.57V19.89a2.16,2.16,0,0,0-.46-1.48,1.86,1.86,0,0,0-1.4-.47,2.2,2.2,0,0,0-1.34.41,2.79,2.79,0,0,0-.91,1.07V26h-1.58V12.9h1.58Z"/><path class="cls-2" d="M147.15,15.65h-3.81V26h-2.56V15.65H137V13.58h10.12Z"/><path class="cls-2" d="M156.07,22.65l1.21-5.88h2.38L157.31,26h-2.07l-1.75-5.81L151.74,26h-2.05l-2.36-9.23h2.38l1.21,5.87,1.69-5.87h1.78Z"/><path class="cls-2" d="M160.86,14.38a1.24,1.24,0,0,1,.37-.91,1.4,1.4,0,0,1,1-.36,1.39,1.39,0,0,1,1,.36,1.29,1.29,0,0,1,0,1.83,1.58,1.58,0,0,1-2,0A1.21,1.21,0,0,1,160.86,14.38ZM163.48,26H161V16.77h2.47Z"/><path class="cls-2" d="M168.46,14.5v2.27H170v1.81h-1.58v4.6a1.13,1.13,0,0,0,.2.74,1,1,0,0,0,.75.22,3.88,3.88,0,0,0,.72-.06V26a5.32,5.32,0,0,1-1.49.22A2.35,2.35,0,0,1,166,23.55v-5h-1.35V16.77H166V14.5Z"/><path class="cls-2" d="M174.37,14.5v2.27h1.57v1.81h-1.57v4.6a1.13,1.13,0,0,0,.19.74,1,1,0,0,0,.75.22,3.91,3.91,0,0,0,.73-.06V26a5.39,5.39,0,0,1-1.5.22,2.35,2.35,0,0,1-2.64-2.62v-5h-1.35V16.77h1.35V14.5Z"/><path class="cls-2" d="M181.57,26.17a4.54,4.54,0,0,1-3.31-1.25A4.42,4.42,0,0,1,177,21.6v-.23a5.56,5.56,0,0,1,.54-2.49A4,4,0,0,1,179,17.19a4.34,4.34,0,0,1,2.25-.59,3.84,3.84,0,0,1,3,1.19,4.85,4.85,0,0,1,1.09,3.39v1h-5.88a2.32,2.32,0,0,0,.72,1.45,2.22,2.22,0,0,0,1.53.54,2.64,2.64,0,0,0,2.22-1l1.22,1.36a3.8,3.8,0,0,1-1.51,1.22A5,5,0,0,1,181.57,26.17Zm-.29-7.58a1.55,1.55,0,0,0-1.19.49,2.57,2.57,0,0,0-.58,1.42h3.43v-.19A1.82,1.82,0,0,0,182.5,19,1.61,1.61,0,0,0,181.28,18.59Z"/><path class="cls-2" d="M192,19.08a6.08,6.08,0,0,0-.89-.07,1.81,1.81,0,0,0-1.83.95v6h-2.47V16.77h2.33l.07,1.1a2.27,2.27,0,0,1,2.05-1.27,2.39,2.39,0,0,1,.77.11Z"/><path class="cls-2" d="M14.6,18c0,2.39,2.06,3.61,4.31,4.07a3.17,3.17,0,0,1-2.13.36c.63,1.95,2.4,2.63,4.55,2.66a9.76,9.76,0,0,1-6.16,1.74A9.18,9.18,0,0,1,14,26.76c2.18,1.39,4.76,2.77,7.54,2.77,9,0,13.43-6.72,13.43-13.22,0-.21,0-.42,0-.63A13.58,13.58,0,0,0,38.05,13c-.88.39-1.91,0-2.9.14A4,4,0,0,0,37.55,10a12.44,12.44,0,0,1-3.37,1.55,5.06,5.06,0,0,0-3.59-1.75c-2.71,0-4.51,2.53-4.51,5.24a3.51,3.51,0,0,0,.08,1c-4.09-.2-8.43-1.54-10.85-4.52A4.94,4.94,0,0,0,14.64,14a5.38,5.38,0,0,0,2.63,4.1C16.46,18.05,16.62,18.57,14.6,18Z"/></g></g></svg>